<?xml version="1.0" standalone="no"?>
<!DOCTYPE svg PUBLIC "-//W3C//DTD SVG 20010904//EN"
 "http://www.w3.org/TR/2001/REC-SVG-20010904/DTD/svg10.dtd">
<svg version="1.0" xmlns="http://www.w3.org/2000/svg"
 width="1024.000000pt" height="1024.000000pt" viewBox="0 0 1024.000000 1024.000000"
 preserveAspectRatio="xMidYMid meet">

<g transform="translate(0.000000,1024.000000) scale(0.100000,-0.100000)"
fill="#000000" stroke="none">
<path d="M2973 5274 c4 -644 6 -670 68 -919 90 -359 274 -687 533 -953 330
-340 743 -555 1201 -627 251 -40 606 -27 825 30 52 13 78 22 57 19 -26 -4 -37
-2 -32 5 4 7 -5 11 -24 11 -18 0 -31 5 -31 13 0 9 -3 8 -9 -2 -7 -11 -15 -11
-41 -2 -18 6 -36 8 -41 5 -5 -3 -12 2 -15 10 -3 9 -10 13 -15 10 -5 -3 -9 0
-9 5 0 6 -10 11 -21 11 -17 0 -20 5 -17 25 3 14 1 25 -3 25 -5 0 -9 -4 -9 -10
0 -5 -6 -7 -14 -4 -8 3 -12 12 -9 20 3 8 -5 18 -21 25 -30 14 -33 24 -10 37
11 6 13 11 5 16 -6 4 -11 3 -11 -3 0 -6 -7 -7 -17 -4 -10 4 -14 2 -10 -4 10
-16 -20 -24 -33 -9 -8 10 -7 15 5 20 9 3 13 11 9 17 -4 8 -9 7 -15 -2 -8 -11
-14 -9 -29 11 -11 14 -24 30 -29 36 -6 7 -7 15 -3 20 4 4 3 5 -3 2 -15 -8 -55
9 -55 24 0 10 2 10 9 0 7 -11 9 -11 14 2 4 9 3 15 -1 15 -22 -4 -33 3 -28 16
7 19 2 19 -35 -1 -55 -28 -40 -9 39 48 195 141 362 335 481 559 131 246 187
495 196 869 l5 205 -20 -85 c-11 -47 -40 -127 -66 -179 -37 -76 -61 -109 -129
-176 -68 -68 -100 -91 -176 -129 -135 -66 -197 -79 -349 -74 -200 7 -321 60
-465 203 -89 89 -134 159 -171 263 -35 102 -44 183 -44 427 l0 221 -37 13
c-21 7 -186 74 -368 148 -367 151 -507 204 -800 304 -110 37 -208 71 -218 75
-18 6 -18 -16 -14 -582z m2277 -2264 c0 -5 -2 -10 -4 -10 -3 0 -8 5 -11 10 -3
6 -1 10 4 10 6 0 11 -4 11 -10z"/>
<path d="M5920 2910 c-8 -5 -10 -10 -5 -10 6 0 17 5 25 10 8 5 11 10 5 10 -5
0 -17 -5 -25 -10z"/>
</g>
</svg>
